<svg xmlns="http://www.w3.org/2000/svg" xmlns:xlink="http://www.w3.org/1999/xlink" version="1.1" width="1132" height="540" name="Sal_Muenster_Tree.svg" y="0" viewBox="0 0 1132 540">
<polyline points="1132,540 0,540 0,0 1132,0 1132,540" fill="white" />
<text x="951" y="60" fill="#000000" font-size="21" font-family="Arial" > SRR10740740</text>
<polyline points="790,76 790,51 940,51" fill="none" stroke="#000000" stroke-width="3" stroke-linecap="square"/>
<text x="951" y="110" fill="#000000" font-size="21" font-family="Arial" > SRR10740741</text>
<polyline points="790,79 790,101 940,101" fill="none" stroke="#000000" stroke-width="3" stroke-linecap="square"/>
<polyline points="640,126 640,76 790,76" fill="none" stroke="#000000" stroke-width="3" stroke-linecap="square"/>
<text x="951" y="160" fill="#000000" font-size="21" font-family="Arial" > SRR10740742</text>
<polyline points="790,176 790,151 940,151" fill="none" stroke="#000000" stroke-width="3" stroke-linecap="square"/>
<text x="951" y="210" fill="#000000" font-size="21" font-family="Arial" > SRR10740746</text>
<polyline points="790,179 790,201 940,201" fill="none" stroke="#000000" stroke-width="3" stroke-linecap="square"/>
<polyline points="640,129 640,176 790,176" fill="none" stroke="#000000" stroke-width="3" stroke-linecap="square"/>
<polyline points="490,188 490,126 640,126" fill="none" stroke="#000000" stroke-width="3" stroke-linecap="square"/>
<text x="951" y="260" fill="#000000" font-size="21" font-family="Arial" > SRR10740744</text>
<polyline points="490,191 490,251 940,251" fill="none" stroke="#000000" stroke-width="3" stroke-linecap="square"/>
<polyline points="340,257 340,188 490,188" fill="none" stroke="#000000" stroke-width="3" stroke-linecap="square"/>
<text x="951" y="310" fill="#000000" font-size="21" font-family="Arial" > SRR10740747</text>
<polyline points="790,326 790,301 940,301" fill="none" stroke="#000000" stroke-width="3" stroke-linecap="square"/>
<text x="951" y="360" fill="#000000" font-size="21" font-family="Arial" > SRR10740748</text>
<polyline points="790,329 790,351 940,351" fill="none" stroke="#000000" stroke-width="3" stroke-linecap="square"/>
<polyline points="340,260 340,326 790,326" fill="none" stroke="#000000" stroke-width="3" stroke-linecap="square"/>
<polyline points="190,341 190,257 340,257" fill="none" stroke="#000000" stroke-width="3" stroke-linecap="square"/>
<text x="951" y="410" fill="#000000" font-size="21" font-family="Arial" > SRR10740743</text>
<polyline points="790,426 790,401 940,401" fill="none" stroke="#000000" stroke-width="3" stroke-linecap="square"/>
<text x="951" y="460" fill="#000000" font-size="21" font-family="Arial" > SRR10740745</text>
<polyline points="790,429 790,451 940,451" fill="none" stroke="#000000" stroke-width="3" stroke-linecap="square"/>
<polyline points="190,344 190,426 790,426" fill="none" stroke="#000000" stroke-width="3" stroke-linecap="square"/>
<polyline points="40,421 40,341 190,341" fill="none" stroke="#000000" stroke-width="3" stroke-linecap="square"/>
<text x="951" y="510" fill="#000000" font-size="21" font-family="Arial" > SRR10740739</text>
<polyline points="40,424 40,501 940,501" fill="none" stroke="#000000" stroke-width="3" stroke-linecap="square"/>
<text x="769" y="355" fill="#000000" font-size="11" font-family="Tahoma" >89</text>
<text x="763" y="455" fill="#000000" font-size="11" font-family="Tahoma" >100</text>
<text x="319" y="239" fill="#000000" font-size="11" font-family="Tahoma" >80</text>
<text x="469" y="170" fill="#000000" font-size="11" font-family="Tahoma" >98</text>
<text x="769" y="58" fill="#000000" font-size="11" font-family="Tahoma" >89</text>
<text x="769" y="205" fill="#000000" font-size="11" font-family="Tahoma" >48</text>
<text x="619" y="108" fill="#000000" font-size="11" font-family="Tahoma" >86</text>
<text x="951" y="60" fill="#000000" font-size="21" font-family="Arial" > SRR10740740</text>
<polyline points="790,76 790,51 940,51" fill="none" stroke="#000000" stroke-width="3" stroke-linecap="square"/>
<text x="951" y="110" fill="#000000" font-size="21" font-family="Arial" > SRR10740741</text>
<polyline points="790,79 790,101 940,101" fill="none" stroke="#000000" stroke-width="3" stroke-linecap="square"/>
<polyline points="640,126 640,76 790,76" fill="none" stroke="#000000" stroke-width="3" stroke-linecap="square"/>
<text x="951" y="160" fill="#000000" font-size="21" font-family="Arial" > SRR10740742</text>
<polyline points="790,176 790,151 940,151" fill="none" stroke="#000000" stroke-width="3" stroke-linecap="square"/>
<text x="951" y="210" fill="#000000" font-size="21" font-family="Arial" > SRR10740746</text>
<polyline points="790,179 790,201 940,201" fill="none" stroke="#000000" stroke-width="3" stroke-linecap="square"/>
<polyline points="640,129 640,176 790,176" fill="none" stroke="#000000" stroke-width="3" stroke-linecap="square"/>
<polyline points="490,188 490,126 640,126" fill="none" stroke="#000000" stroke-width="3" stroke-linecap="square"/>
<text x="951" y="260" fill="#000000" font-size="21" font-family="Arial" > SRR10740744</text>
<polyline points="490,191 490,251 940,251" fill="none" stroke="#000000" stroke-width="3" stroke-linecap="square"/>
<polyline points="340,257 340,188 490,188" fill="none" stroke="#000000" stroke-width="3" stroke-linecap="square"/>
<text x="951" y="310" fill="#000000" font-size="21" font-family="Arial" > SRR10740747</text>
<polyline points="790,326 790,301 940,301" fill="none" stroke="#000000" stroke-width="3" stroke-linecap="square"/>
<text x="951" y="360" fill="#000000" font-size="21" font-family="Arial" > SRR10740748</text>
<polyline points="790,329 790,351 940,351" fill="none" stroke="#000000" stroke-width="3" stroke-linecap="square"/>
<polyline points="340,260 340,326 790,326" fill="none" stroke="#000000" stroke-width="3" stroke-linecap="square"/>
<polyline points="190,341 190,257 340,257" fill="none" stroke="#000000" stroke-width="3" stroke-linecap="square"/>
<text x="951" y="410" fill="#000000" font-size="21" font-family="Arial" > SRR10740743</text>
<polyline points="790,426 790,401 940,401" fill="none" stroke="#000000" stroke-width="3" stroke-linecap="square"/>
<text x="951" y="460" fill="#000000" font-size="21" font-family="Arial" > SRR10740745</text>
<polyline points="790,429 790,451 940,451" fill="none" stroke="#000000" stroke-width="3" stroke-linecap="square"/>
<polyline points="190,344 190,426 790,426" fill="none" stroke="#000000" stroke-width="3" stroke-linecap="square"/>
<polyline points="40,421 40,341 190,341" fill="none" stroke="#000000" stroke-width="3" stroke-linecap="square"/>
<text x="951" y="510" fill="#000000" font-size="21" font-family="Arial" > SRR10740739</text>
<polyline points="40,424 40,501 940,501" fill="none" stroke="#000000" stroke-width="3" stroke-linecap="square"/>
<text x="769" y="355" fill="#000000" font-size="11" font-family="Tahoma" >89</text>
<text x="763" y="455" fill="#000000" font-size="11" font-family="Tahoma" >100</text>
<text x="319" y="239" fill="#000000" font-size="11" font-family="Tahoma" >80</text>
<text x="469" y="170" fill="#000000" font-size="11" font-family="Tahoma" >98</text>
<text x="769" y="58" fill="#000000" font-size="11" font-family="Tahoma" >89</text>
<text x="769" y="205" fill="#000000" font-size="11" font-family="Tahoma" >48</text>
<text x="619" y="108" fill="#000000" font-size="11" font-family="Tahoma" >86</text>
</svg>
